<?xml version="1.0" encoding="UTF-8"?>
<svg version="1.1" xmlns="http://www.w3.org/2000/svg" width="500" height="328">
<path d="M0 0 C165 0 330 0 500 0 C500 108.24 500 216.48 500 328 C335 328 170 328 0 328 C0 219.76 0 111.52 0 0 Z " fill="#292929" transform="translate(0,0)"/>
<path d="M0 0 C2.39538494 0.00811995 4.7854442 0.05908378 7.1796875 0.1328125 C9.005 0.16375 9.005 0.16375 10.8671875 0.1953125 C15.60877118 1.53727014 17.55338416 4.08193856 20.1796875 8.1328125 C25.38780019 17.50741534 24.34959773 30.21041472 21.4921875 40.2578125 C19.74308399 45.25435549 17.57015031 49.08309303 14.1796875 53.1328125 C17.8096875 53.7928125 21.4396875 54.4528125 25.1796875 55.1328125 C20.4296875 60.0078125 20.4296875 60.0078125 18.1796875 61.1328125 C17.96303201 64.19908956 17.80509432 67.25008488 17.6796875 70.3203125 C17.61265625 71.18462891 17.545625 72.04894531 17.4765625 72.93945312 C17.39624886 75.55968548 17.42018868 77.61852209 18.1796875 80.1328125 C20.15001567 81.87984751 22.00353617 82.92811022 24.3984375 84.01171875 C24.98625 84.38167969 25.5740625 84.75164062 26.1796875 85.1328125 C26.6796875 88.9453125 26.6796875 88.9453125 26.1796875 92.1328125 C30.4696875 91.1428125 34.7596875 90.1528125 39.1796875 89.1328125 C37.15714844 88.37097656 37.15714844 88.37097656 35.09375 87.59375 C33.33026612 86.89961273 31.56727008 86.20423521 29.8046875 85.5078125 C28.91523438 85.17652344 28.02578125 84.84523438 27.109375 84.50390625 C20.57724571 81.88115737 20.57724571 81.88115737 18.5859375 78.1328125 C18.07341959 74.34806485 18.04810787 70.94862191 18.1796875 67.1328125 C20.59478191 66.45995038 23.01149106 65.79435238 25.4296875 65.1328125 C26.11160156 64.94203125 26.79351562 64.75125 27.49609375 64.5546875 C30.88569662 63.63324206 33.63747726 63.1328125 37.1796875 63.1328125 C37.1796875 64.7828125 37.1796875 66.4328125 37.1796875 68.1328125 C35.1996875 68.4628125 33.2196875 68.7928125 31.1796875 69.1328125 C33.1596875 69.4628125 35.1396875 69.7928125 37.1796875 70.1328125 C37.1796875 71.1228125 37.1796875 72.1128125 37.1796875 73.1328125 C35.1996875 73.4628125 33.2196875 73.7928125 31.1796875 74.1328125 C33.4896875 74.7928125 35.7996875 75.4528125 38.1796875 76.1328125 C38.5096875 67.8828125 38.8396875 59.6328125 39.1796875 51.1328125 C37.2409375 52.3084375 35.3021875 53.4840625 33.3046875 54.6953125 C30 56.69921875 30 56.69921875 27.1796875 58.1328125 C26.5196875 57.8028125 25.8596875 57.4728125 25.1796875 57.1328125 C25.92734375 56.59011719 26.675 56.04742187 27.4453125 55.48828125 C28.43015625 54.77285156 29.415 54.05742188 30.4296875 53.3203125 C31.40421875 52.61261719 32.37875 51.90492187 33.3828125 51.17578125 C36.1074179 49.24013301 36.1074179 49.24013301 38.25 47.36328125 C41.94427724 45.00761864 46.07028438 46.36010422 50.1796875 47.1328125 C59.61670831 49.28834372 59.61670831 49.28834372 62.1796875 53.1328125 C62.39884308 55.63892104 62.50761729 58.03152688 62.515625 60.5390625 C62.5256102 61.62072693 62.5256102 61.62072693 62.53579712 62.72424316 C62.54591203 64.24728853 62.5506145 65.77037811 62.55029297 67.29345703 C62.55467238 69.62476304 62.59101627 71.95418445 62.62890625 74.28515625 C62.63477347 75.76561853 62.6387435 77.24608979 62.640625 78.7265625 C62.65499603 79.4235022 62.66936707 80.12044189 62.68417358 80.83850098 C62.65367932 84.06360664 62.59263222 85.70286418 60.31201172 88.07739258 C57.67906527 89.38060159 55.85308247 89.43570967 52.9296875 89.3203125 C51.59164062 89.27970703 51.59164062 89.27970703 50.2265625 89.23828125 C49.21335938 89.18607422 49.21335938 89.18607422 48.1796875 89.1328125 C48.1796875 90.7828125 48.1796875 92.4328125 48.1796875 94.1328125 C48.8190625 93.9678125 49.4584375 93.8028125 50.1171875 93.6328125 C54.15555402 92.97348735 58.09776008 93.05277471 62.1796875 93.1328125 C62.1796875 94.7828125 62.1796875 96.4328125 62.1796875 98.1328125 C57.93516059 99.5476548 53.68329146 99.77983822 49.2421875 100.1953125 C47.82933472 100.32945557 47.82933472 100.32945557 46.38793945 100.46630859 C39.6246017 101.07656078 32.97192352 101.38593931 26.1796875 101.1328125 C26.2003125 102.4321875 26.2209375 103.7315625 26.2421875 105.0703125 C26.26368204 106.42446883 26.25116949 107.78037333 26.1796875 109.1328125 C24.53676204 110.77573796 22.53378712 110.47388968 20.26953125 110.66796875 C19.28017578 110.75498047 18.29082031 110.84199219 17.27148438 110.93164062 C16.23056641 111.01865234 15.18964844 111.10566406 14.1171875 111.1953125 C12.55000977 111.33163086 12.55000977 111.33163086 10.95117188 111.47070312 C8.360996 111.69542158 5.77052983 111.9159356 3.1796875 112.1328125 C4.4790625 112.2771875 5.7784375 112.4215625 7.1171875 112.5703125 C11.0546875 113.0078125 11.0546875 113.0078125 12.1796875 114.1328125 C12.30530985 115.90028979 12.35545308 117.67341542 12.3671875 119.4453125 C12.38136719 120.41082031 12.39554687 121.37632812 12.41015625 122.37109375 C12.1796875 125.1328125 12.1796875 125.1328125 10.1796875 129.1328125 C15.1296875 129.4628125 20.0796875 129.7928125 25.1796875 130.1328125 C24.9940625 131.26332031 24.8084375 132.39382812 24.6171875 133.55859375 C22.82466216 150.13333825 30.58599075 161.22017391 39.48388672 174.40405273 C41.0560519 176.93386704 42.17666218 179.33612318 43.1796875 182.1328125 C43.8396875 182.1328125 44.4996875 182.1328125 45.1796875 182.1328125 C45.00429443 181.48135254 44.82890137 180.82989258 44.64819336 180.15869141 C44.39948486 179.23491699 44.15077637 178.31114258 43.89453125 177.359375 C43.61456299 176.31950439 43.33459473 175.27963379 43.04614258 174.20825195 C42.41965445 171.88127254 41.79319014 169.55428672 41.16674805 167.22729492 C39.54400506 161.19955925 37.92091374 155.17191795 36.296875 149.14453125 C34.84289155 143.74808317 33.39043157 138.35122707 31.93896484 132.95410156 C31.25616131 130.41697049 30.57164396 127.88030888 29.88671875 125.34375 C29.52594171 124.00263105 29.16525515 122.66148776 28.8046875 121.3203125 C28.50820312 120.22074219 28.21171875 119.12117188 27.90625 117.98828125 C27.24263786 115.38021417 26.67819449 112.7768545 26.1796875 110.1328125 C29.4796875 110.1328125 32.7796875 110.1328125 36.1796875 110.1328125 C37.74696255 115.47579563 39.11131666 120.84874058 40.4296875 126.2578125 C42.46178695 134.53900558 44.72796498 142.73182176 47.21191406 150.88916016 C48.82346444 156.32572859 49.70238095 161.47900278 50.1796875 167.1328125 C50.8396875 167.1328125 51.4996875 167.1328125 52.1796875 167.1328125 C52.44007813 165.93011719 52.70046875 164.72742188 52.96875 163.48828125 C54.38651821 157.11330766 55.96984117 150.78045912 57.5546875 144.4453125 C57.86559326 143.20249512 58.17649902 141.95967773 58.49682617 140.67919922 C61.08537613 130.39381152 63.78419765 120.18583487 67.1796875 110.1328125 C70.4796875 110.1328125 73.7796875 110.1328125 77.1796875 110.1328125 C76.32326444 115.09802715 74.84373384 119.86780768 73.4296875 124.6953125 C71.13351302 132.61904171 69.02801561 140.56589796 67.08618164 148.58325195 C66.00054685 153.01286945 64.83053527 157.40013018 63.53515625 161.7734375 C63.25800781 162.71058594 62.98085937 163.64773437 62.6953125 164.61328125 C62.15948054 166.40528531 61.61449895 168.19458974 61.05859375 169.98046875 C59.48735561 175.231712 58.90807571 179.65004419 59.1796875 185.1328125 C54.8896875 185.1328125 50.5996875 185.1328125 46.1796875 185.1328125 C46.1796875 185.7928125 46.1796875 186.4528125 46.1796875 187.1328125 C41.87535867 188.11603482 38.43655474 188.42970754 34.1796875 187.1328125 C30.07582116 182.97097024 27.64396892 177.36007612 25.1796875 172.1328125 C25.1796875 176.4228125 25.1796875 180.7128125 25.1796875 185.1328125 C21.5496875 185.1328125 17.9196875 185.1328125 14.1796875 185.1328125 C14.5096875 174.5728125 14.8396875 164.0128125 15.1796875 153.1328125 C14.5196875 153.1328125 13.8596875 153.1328125 13.1796875 153.1328125 C12.9528125 153.8959375 12.7259375 154.6590625 12.4921875 155.4453125 C11.01135288 159.60575262 9.14733833 163.48774361 7.203125 167.44921875 C6.14405699 170.22624059 5.97751998 172.19074309 6.1796875 175.1328125 C4.5296875 175.4628125 2.8796875 175.7928125 1.1796875 176.1328125 C1.1796875 179.7628125 1.1796875 183.3928125 1.1796875 187.1328125 C-4.7603125 187.1328125 -10.7003125 187.1328125 -16.8203125 187.1328125 C-16.8203125 186.4728125 -16.8203125 185.8128125 -16.8203125 185.1328125 C-19.1303125 185.1328125 -21.4403125 185.1328125 -23.8203125 185.1328125 C-23.8203125 181.5028125 -23.8203125 177.8728125 -23.8203125 174.1328125 C-23.8615625 175.7209375 -23.9028125 177.3090625 -23.9453125 178.9453125 C-24.22265625 181.70703125 -24.22265625 181.70703125 -24.8203125 184.1328125 C-28.68425026 187.1880191 -31.98967747 187.47785786 -36.8203125 187.1328125 C-36.8203125 186.4728125 -36.8203125 185.8128125 -36.8203125 185.1328125 C-37.3771875 185.3184375 -37.9340625 185.5040625 -38.5078125 185.6953125 C-41.2194455 186.20832415 -43.16402289 185.7968849 -45.8203125 185.1328125 C-45.8203125 185.7928125 -45.8203125 186.4528125 -45.8203125 187.1328125 C-46.8103125 187.1328125 -47.8003125 187.1328125 -48.8203125 187.1328125 C-48.8203125 186.4728125 -48.8203125 185.8128125 -48.8203125 185.1328125 C-50.8003125 185.1328125 -52.7803125 185.1328125 -54.8203125 185.1328125 C-54.8203125 166.9828125 -54.8203125 148.8328125 -54.8203125 130.1328125 C-50.8603125 129.8028125 -46.9003125 129.4728125 -42.8203125 129.1328125 C-39.63668814 127.8328281 -39.63668814 127.8328281 -36.8203125 126.1328125 C-29.00130798 123.1328125 -29.00130798 123.1328125 -24.8203125 123.1328125 C-26.32800481 126.90204327 -26.32800481 126.90204327 -28.8203125 128.0703125 C-31.07473884 128.97067758 -31.07473884 128.97067758 -31.59643555 131.52905273 C-33.22437484 134.99244243 -34.95042423 135.34337822 -38.40234375 136.85546875 C-41.48077043 138.53936478 -41.48077043 138.53936478 -43.8203125 141.1328125 C-45.22674606 146.98672018 -44.86441642 152.59979649 -44.5078125 158.5703125 C-44.45258005 160.17626493 -44.40239946 161.78239953 -44.35742188 163.38867188 C-44.23671511 167.30791064 -44.04732523 171.2183511 -43.8203125 175.1328125 C-41.9271498 171.57008899 -40.05855128 167.99562747 -38.21118164 164.40893555 C-37.58033519 163.19231464 -36.94304503 161.97901135 -36.29907227 160.76928711 C-35.3710226 159.02317353 -34.46843557 157.26360279 -33.56640625 155.50390625 C-33.01654053 154.45130615 -32.4666748 153.39870605 -31.90014648 152.31420898 C-30.60650392 148.50289171 -31.09868673 146.04303775 -31.8203125 142.1328125 C-30.67578125 139.734375 -30.67578125 139.734375 -29.0078125 137.7578125 C-28.46511719 137.09007812 -27.92242187 136.42234375 -27.36328125 135.734375 C-25.8203125 134.1328125 -25.8203125 134.1328125 -23.8203125 133.1328125 C-23.8203125 132.1428125 -23.8203125 131.1528125 -23.8203125 130.1328125 C-21.1803125 129.8028125 -18.5403125 129.4728125 -15.8203125 129.1328125 C-13.56050711 124.61320172 -13.50047669 121.09026756 -13.8203125 116.1328125 C-14.4803125 115.1428125 -15.1403125 114.1528125 -15.8203125 113.1328125 C-16.1503125 113.4628125 -16.4803125 113.7928125 -16.8203125 114.1328125 C-16.4903125 114.7928125 -16.1603125 115.4528125 -15.8203125 116.1328125 C-15.35750258 122.38074638 -15.35750258 122.38074638 -17.3203125 125.5703125 C-17.8153125 126.0859375 -18.3103125 126.6015625 -18.8203125 127.1328125 C-20.4703125 126.8028125 -22.1203125 126.4728125 -23.8203125 126.1328125 C-23.80871094 125.44574219 -23.79710937 124.75867188 -23.78515625 124.05078125 C-23.77613281 123.14972656 -23.76710937 122.24867188 -23.7578125 121.3203125 C-23.74621094 120.42699219 -23.73460937 119.53367187 -23.72265625 118.61328125 C-23.71021283 115.99867459 -23.71021283 115.99867459 -24.8203125 113.1328125 C-30.7603125 112.8028125 -36.7003125 112.4728125 -42.8203125 112.1328125 C-42.8203125 101.9028125 -42.8203125 91.6728125 -42.8203125 81.1328125 C-45.7903125 82.1228125 -48.7603125 83.1128125 -51.8203125 84.1328125 C-55.3828125 84.3203125 -55.3828125 84.3203125 -57.8203125 84.1328125 C-58.4803125 82.4828125 -59.1403125 80.8328125 -59.8203125 79.1328125 C-59.1603125 79.4628125 -58.5003125 79.7928125 -57.8203125 80.1328125 C-57.5521875 79.1634375 -57.2840625 78.1940625 -57.0078125 77.1953125 C-56.6159375 76.1846875 -56.2240625 75.1740625 -55.8203125 74.1328125 C-54.3353125 73.6378125 -54.3353125 73.6378125 -52.8203125 73.1328125 C-52.8203125 74.7828125 -52.8203125 76.4328125 -52.8203125 78.1328125 C-51.77230469 77.771875 -50.72429687 77.4109375 -49.64453125 77.0390625 C-48.26570599 76.57007432 -46.88679525 76.1013374 -45.5078125 75.6328125 C-44.81751953 75.39433594 -44.12722656 75.15585938 -43.41601562 74.91015625 C-40.43099761 73.90072987 -37.99372336 73.1328125 -34.8203125 73.1328125 C-34.8203125 71.4828125 -34.8203125 69.8328125 -34.8203125 68.1328125 C-26.96833178 63.90482288 -18.84111751 60.1328125 -9.8203125 60.1328125 C-9.8203125 73.0028125 -9.8203125 85.8728125 -9.8203125 99.1328125 C-18.14419957 101.51106595 -26.13121692 103.51899453 -34.8203125 103.1328125 C-34.4903125 102.4728125 -34.1603125 101.8128125 -33.8203125 101.1328125 C-31.7578125 100.5078125 -31.7578125 100.5078125 -29.8203125 100.1328125 C-30.8103125 100.1328125 -31.8003125 100.1328125 -32.8203125 100.1328125 C-32.8203125 99.4728125 -32.8203125 98.8128125 -32.8203125 98.1328125 C-30.23837273 97.46030726 -27.65499179 96.79463349 -25.0703125 96.1328125 C-24.34070313 95.94203125 -23.61109375 95.75125 -22.859375 95.5546875 C-19.37459604 94.66765286 -16.43907528 94.1328125 -12.8203125 94.1328125 C-12.8203125 83.9028125 -12.8203125 73.6728125 -12.8203125 63.1328125 C-18.4303125 64.7828125 -24.0403125 66.4328125 -29.8203125 68.1328125 C-28.3353125 69.1228125 -28.3353125 69.1228125 -26.8203125 70.1328125 C-26.4406351 73.61318865 -26.18681777 76.065874 -28.0078125 79.1328125 C-29.8203125 80.1328125 -29.8203125 80.1328125 -34.8203125 79.1328125 C-35.1503125 86.3928125 -35.4803125 93.6528125 -35.8203125 101.1328125 C-37.8203125 99.1328125 -37.8203125 99.1328125 -38.04736328 97.06982422 C-38.03688965 96.24240723 -38.02641602 95.41499023 -38.015625 94.5625 C-38.00917969 93.66660156 -38.00273437 92.77070313 -37.99609375 91.84765625 C-37.97933594 90.91050781 -37.96257812 89.97335938 -37.9453125 89.0078125 C-37.93628906 88.06292969 -37.92726562 87.11804688 -37.91796875 86.14453125 C-37.89435772 83.80703958 -37.86142766 81.47005127 -37.8203125 79.1328125 C-39.3053125 79.6278125 -39.3053125 79.6278125 -40.8203125 80.1328125 C-41.1503125 89.7028125 -41.4803125 99.2728125 -41.8203125 109.1328125 C-39.73589844 108.771875 -37.65148437 108.4109375 -35.50390625 108.0390625 C-33.46532183 107.69017764 -31.4264073 107.34328712 -29.38745117 106.99658203 C-27.97986778 106.75614878 -26.57263183 106.5136715 -25.16577148 106.26904297 C-23.13354895 105.91605146 -21.10015491 105.57063856 -19.06640625 105.2265625 C-17.84622803 105.01708984 -16.6260498 104.80761719 -15.36889648 104.59179688 C-11.8203125 104.1328125 -11.8203125 104.1328125 -4.8203125 104.1328125 C-4.8203125 96.5428125 -4.8203125 88.9528125 -4.8203125 81.1328125 C-3.3353125 82.1228125 -1.8503125 83.1128125 -0.3203125 84.1328125 C4.6077706 87.10364274 7.50477522 87.82973155 13.1796875 87.1328125 C14.1696875 86.8028125 15.1596875 86.4728125 16.1796875 86.1328125 C15.18388672 86.11154297 15.18388672 86.11154297 14.16796875 86.08984375 C6.8921473 85.69684318 6.8921473 85.69684318 3.1796875 82.7578125 C-1.32245005 76.84875696 -1.79840282 72.4733319 -0.8203125 65.1328125 C0.8069125 61.90255915 2.90146072 59.77192589 6.1796875 58.1328125 C1.13983019 58.57750579 -1.19666238 60.84624612 -4.8203125 64.1328125 C-5.1503125 59.8428125 -5.4803125 55.5528125 -5.8203125 51.1328125 C-4.5828125 50.7615625 -3.3453125 50.3903125 -2.0703125 50.0078125 C2.39226557 48.28417124 4.08272972 46.55972337 6.1796875 42.1328125 C9.97743736 31.03549148 10.85356129 20.41704932 6.390625 9.41796875 C4.81581729 6.44615419 3.06534449 4.83461021 0.1796875 3.1328125 C-0.8103125 2.4728125 -1.8003125 1.8128125 -2.8203125 1.1328125 C-1.8203125 0.1328125 -1.8203125 0.1328125 0 0 Z " fill="#8E8E8E" transform="translate(178.8203125,51.8671875)"/>
<path d="M0 0 C3.3 0 6.6 0 10 0 C11.56727505 5.34298313 12.93162916 10.71592808 14.25 16.125 C16.28209945 24.40619308 18.54827748 32.59900926 21.03222656 40.75634766 C22.64377694 46.19291609 23.52269345 51.34619028 24 57 C24.66 57 25.32 57 26 57 C26.39058594 55.19595703 26.39058594 55.19595703 26.7890625 53.35546875 C28.20683071 46.98049516 29.79015367 40.64764662 31.375 34.3125 C31.68590576 33.06968262 31.99681152 31.82686523 32.31713867 30.54638672 C34.90568863 20.26099902 37.60451015 10.05302237 41 0 C44.3 0 47.6 0 51 0 C50.14357694 4.96521465 48.66404634 9.73499518 47.25 14.5625 C44.95382552 22.48622921 42.84832811 30.43308546 40.90649414 38.45043945 C39.82085935 42.88005695 38.65084777 47.26731768 37.35546875 51.640625 C36.93974609 53.04634766 36.93974609 53.04634766 36.515625 54.48046875 C35.97979304 56.27247281 35.43481145 58.06177724 34.87890625 59.84765625 C33.30766811 65.0988995 32.72838821 69.51723169 33 75 C28.71 75 24.42 75 20 75 C20 75.66 20 76.32 20 77 C15.69567117 77.98322232 12.25686724 78.29689504 8 77 C3.89613366 72.83815774 1.46428142 67.22726362 -1 62 C-1 66.29 -1 70.58 -1 75 C-4.63 75 -8.26 75 -12 75 C-11.67 64.44 -11.34 53.88 -11 43 C-11.66 43 -12.32 43 -13 43 C-13.226875 43.763125 -13.45375 44.52625 -13.6875 45.3125 C-15.16833462 49.47294012 -17.03234917 53.35493111 -18.9765625 57.31640625 C-20.03563051 60.09342809 -20.20216752 62.05793059 -20 65 C-22.475 65.495 -22.475 65.495 -25 66 C-25 69.63 -25 73.26 -25 77 C-30.94 77 -36.88 77 -43 77 C-43 76.34 -43 75.68 -43 75 C-45.31 75 -47.62 75 -50 75 C-50 71.37 -50 67.74 -50 64 C-50.04125 65.588125 -50.0825 67.17625 -50.125 68.8125 C-50.40234375 71.57421875 -50.40234375 71.57421875 -51 74 C-54.86393776 77.0552066 -58.16936497 77.34504536 -63 77 C-63 76.34 -63 75.68 -63 75 C-63.8353125 75.2784375 -63.8353125 75.2784375 -64.6875 75.5625 C-67.399133 76.07551165 -69.34371039 75.6640724 -72 75 C-72 75.66 -72 76.32 -72 77 C-72.99 77 -73.98 77 -75 77 C-75 76.34 -75 75.68 -75 75 C-76.98 75 -78.96 75 -81 75 C-81 56.85 -81 38.7 -81 20 C-77.04 19.67 -73.08 19.34 -69 19 C-65.81637564 17.7000156 -65.81637564 17.7000156 -63 16 C-55.18099548 13 -55.18099548 13 -51 13 C-52.50769231 16.76923077 -52.50769231 16.76923077 -55 17.9375 C-57.25442634 18.83786508 -57.25442634 18.83786508 -57.77612305 21.39624023 C-59.40406234 24.85962993 -61.13011173 25.21056572 -64.58203125 26.72265625 C-67.66045793 28.40655228 -67.66045793 28.40655228 -70 31 C-71.40643356 36.85390768 -71.04410392 42.46698399 -70.6875 48.4375 C-70.63226755 50.04345243 -70.58208696 51.64958703 -70.53710938 53.25585938 C-70.41640261 57.17509814 -70.22701273 61.0855386 -70 65 C-68.1068373 61.43727649 -66.23823878 57.86281497 -64.39086914 54.27612305 C-63.76002269 53.05950214 -63.12273253 51.84619885 -62.47875977 50.63647461 C-61.5507101 48.89036103 -60.64812307 47.13079029 -59.74609375 45.37109375 C-59.19622803 44.31849365 -58.6463623 43.26589355 -58.07983398 42.18139648 C-56.78619142 38.37007921 -57.27837423 35.91022525 -58 32 C-56.85546875 29.6015625 -56.85546875 29.6015625 -55.1875 27.625 C-54.64480469 26.95726562 -54.10210937 26.28953125 -53.54296875 25.6015625 C-52 24 -52 24 -50 23 C-50 22.01 -50 21.02 -50 20 C-48.35492782 19.80593522 -46.70890406 19.61992065 -45.0625 19.4375 C-44.14597656 19.33308594 -43.22945312 19.22867188 -42.28515625 19.12109375 C-41.15400391 19.06115234 -41.15400391 19.06115234 -40 19 C-39.67 19.33 -39.34 19.66 -39 20 C-37.51562191 20.22623521 -36.02222575 20.39412965 -34.52734375 20.53515625 C-33.62822266 20.62216797 -32.72910156 20.70917969 -31.80273438 20.79882812 C-30.85720703 20.88583984 -29.91167969 20.97285156 -28.9375 21.0625 C-27.98810547 21.15337891 -27.03871094 21.24425781 -26.06054688 21.33789062 C-23.70737865 21.56256498 -21.35389381 21.78308182 -19 22 C-22.87408462 24.13149443 -26.40192042 24.42701882 -30.75 24.625 C-34.33875 24.810625 -34.33875 24.810625 -38 25 C-34.04 33.25 -30.08 41.5 -26 50 C-23.70424397 47.70424397 -23.67660401 46.99157475 -23.375 43.875 C-23.189375 41.956875 -23.189375 41.956875 -23 40 C-23.99 39.67 -24.98 39.34 -26 39 C-23.69 39 -21.38 39 -19 39 C-18.72414062 38.15179688 -18.44828125 37.30359375 -18.1640625 36.4296875 C-16.98545009 32.95713146 -15.70069594 29.54390005 -14.375 26.125 C-13.92898437 24.97257812 -13.48296875 23.82015625 -13.0234375 22.6328125 C-12.68570313 21.76398438 -12.34796875 20.89515625 -12 20 C-8.37 20 -4.74 20 -1 20 C-1.2784375 21.69576172 -1.2784375 21.69576172 -1.5625 23.42578125 C-3.35502534 40.00052575 4.40630325 51.08736141 13.30419922 64.27124023 C14.8763644 66.80105454 15.99697468 69.20331068 17 72 C17.66 72 18.32 72 19 72 C18.82460693 71.34854004 18.64921387 70.69708008 18.46850586 70.02587891 C18.21979736 69.10210449 17.97108887 68.17833008 17.71484375 67.2265625 C17.43487549 66.18669189 17.15490723 65.14682129 16.86645508 64.07543945 C16.23996695 61.74846004 15.61350264 59.42147422 14.98706055 57.09448242 C13.36431756 51.06674675 11.74122624 45.03910545 10.1171875 39.01171875 C8.66320405 33.61527067 7.21074407 28.21841457 5.75927734 22.82128906 C5.07647381 20.28415799 4.39195646 17.74749638 3.70703125 15.2109375 C3.34625421 13.86981855 2.98556765 12.52867526 2.625 11.1875 C2.32851562 10.08792969 2.03203125 8.98835937 1.7265625 7.85546875 C1.06295036 5.24740167 0.49850699 2.644042 0 0 Z " fill="#15488B" transform="translate(205,162)"/>
<path d="M0 0 C3.89000475 1.79600633 6.11140686 4.79710891 7.875 8.625 C9 12 9 12 9 15 C5.7 15.33 2.4 15.66 -1 16 C-1.66 13.69 -2.32 11.38 -3 9 C-4.32 9 -5.64 9 -7 9 C-7.59947391 11.71245051 -7.59947391 11.71245051 -7 15 C-4.93345599 17.59820522 -2.41415825 19.62520491 0.125 21.75 C9.05926644 29.65856137 13.6530378 36.25883295 16 48 C17.44620728 47.99214478 17.44620728 47.99214478 18.92163086 47.98413086 C22.48672564 47.96607882 26.05181636 47.95456726 29.61694336 47.94506836 C31.16219766 47.9400286 32.70744716 47.9331968 34.25268555 47.92456055 C36.46925029 47.91247924 38.68575218 47.90676827 40.90234375 47.90234375 C41.5971434 47.89718246 42.29194305 47.89202118 43.00779724 47.88670349 C44.6722933 47.88650723 46.33665499 47.93810871 48 48 C48.33 48.33 48.66 48.66 49 49 C49 32.83 49 16.66 49 0 C68.43243243 0 68.43243243 0 74.75 5.3125 C79.12466658 10.53779619 80.56881625 14.72290535 80.35546875 21.46875 C79.51773417 27.43415669 76.54668531 32.10284116 72 36 C73.90491657 42.39135942 76.90001574 48.21157379 79.81054688 54.1875 C80.20435547 55.00476563 80.59816406 55.82203125 81.00390625 56.6640625 C81.36299072 57.40092285 81.7220752 58.1377832 82.09204102 58.89697266 C82.96577668 60.92073147 83.53331275 62.84965574 84 65 C82.54207116 65.05399736 81.08357288 65.09279177 79.625 65.125 C78.81289063 65.14820313 78.00078125 65.17140625 77.1640625 65.1953125 C75 65 75 65 73 63 C72.359375 61.29296875 72.359375 61.29296875 71.75 59.1875 C70.05580076 53.79766406 67.65136871 48.80759184 65.20703125 43.72265625 C64 41 64 41 64 39 C62.35 39 60.7 39 59 39 C59.495 46.92 59.495 46.92 60 55 C45.48 55 30.96 55 16 55 C15.67 57.97 15.34 60.94 15 64 C12.14143327 71.54661618 7.70265545 76.66985541 0.3984375 80.2890625 C-10.19784362 84.63385033 -21.50768121 86.18411749 -32.4375 81.9375 C-39.92334641 78.37089216 -46.06946637 73.36975056 -50 66 C-50 64.68 -50 63.36 -50 62 C-47.1875 60.4375 -47.1875 60.4375 -44 59 C-41 60 -41 60 -40.11328125 61.671875 C-39.84902344 62.35765625 -39.58476562 63.0434375 -39.3125 63.75 C-36.46670768 69.81088593 -31.69747301 71.93118994 -25.6875 74.3125 C-17.03432864 75.92580313 -10.82957198 75.5993178 -3.09375 71.19140625 C-1 70 -1 70 2 69 C3.10168984 67.30230766 3.10168984 67.30230766 4 65 C4.53625 63.989375 5.0725 62.97875 5.625 61.9375 C8.04790853 56.03715281 7.89530861 50.24716407 6.21484375 44.15234375 C2.81508503 36.0300906 -2.881941 30.85530123 -9.4375 25.16308594 C-14.53404587 20.71079328 -16.67208285 17.95125438 -17.4375 11.0625 C-17.3385063 6.31080264 -15.32811973 4.24887878 -12 1 C-8.26380019 -0.8680999 -4.06857253 -0.54372628 0 0 Z " fill="#134689" transform="translate(288,182)"/>
<path d="M0 0 C1.0209375 0.7425 1.0209375 0.7425 2.0625 1.5 C3.0525 2.139375 4.0425 2.77875 5.0625 3.4375 C10.02904961 7.74856591 11.66588701 14.12210506 12.41015625 20.4609375 C12.69839555 30.01043085 11.2276947 39.94266457 5.0625 47.5 C2.4970406 50.0654594 0.58563332 50.04046087 -2.9375 50.5 C-2.9375 51.16 -2.9375 51.82 -2.9375 52.5 C-7.8836595 54.49820289 -12.83159523 56.49191611 -17.78125 58.48144531 C-19.46566872 59.15924189 -21.14959074 59.83827417 -22.83300781 60.51855469 C-25.24936236 61.49477331 -27.66745399 62.46656976 -30.0859375 63.4375 C-30.8411972 63.74373291 -31.59645691 64.04996582 -32.37460327 64.36547852 C-37.70975659 66.5 -37.70975659 66.5 -39.9375 66.5 C-39.9375 68.15 -39.9375 69.8 -39.9375 71.5 C-40.5975 71.5 -41.2575 71.5 -41.9375 71.5 C-41.9375 69.52 -41.9375 67.54 -41.9375 65.5 C-39.6275 64.18 -37.3175 62.86 -34.9375 61.5 C-35.55625 60.778125 -36.175 60.05625 -36.8125 59.3125 C-42.98943661 51.13714272 -42.6966773 40.33767253 -41.9375 30.5 C-40.11668964 21.979795 -37.32962494 15.42808329 -29.9375 10.5 C-26.87109375 10.48828125 -26.87109375 10.48828125 -23.375 10.8125 C-22.21871094 10.91175781 -21.06242187 11.01101562 -19.87109375 11.11328125 C-16.9375 11.5 -16.9375 11.5 -14.9375 12.5 C-14.9375 13.16 -14.9375 13.82 -14.9375 14.5 C-16.2575 14.5 -17.5775 14.5 -18.9375 14.5 C-18.9375 15.16 -18.9375 15.82 -18.9375 16.5 C-16.9575 16.5 -14.9775 16.5 -12.9375 16.5 C-12.8446875 15.2625 -12.8446875 15.2625 -12.75 14 C-11.44690051 8.38664835 -8.81655407 4.05823996 -4.375 0.375 C-1.9375 -0.5 -1.9375 -0.5 0 0 Z " fill="#8C8C8C" transform="translate(176.9375,52.5)"/>
<path d="M0 0 C0.84477905 0.00202423 1.68955811 0.00404846 2.55993652 0.00613403 C3.42179565 0.00517731 4.28365479 0.00422058 5.17163086 0.00323486 C6.99751864 0.00255304 8.82340884 0.00440749 10.64929199 0.00857544 C13.45419731 0.01392367 16.25894248 0.00863054 19.06384277 0.00222778 C20.83337438 0.00288856 22.60290588 0.00416973 24.37243652 0.00613403 C25.21721558 0.0041098 26.06199463 0.00208557 26.93237305 0 C32.85123621 0.02399622 32.85123621 0.02399622 33.96618652 1.13894653 C33.96618652 4.10894653 33.96618652 7.07894653 33.96618652 10.13894653 C23.07618652 9.64394653 23.07618652 9.64394653 11.96618652 9.13894653 C11.96618652 14.41894653 11.96618652 19.69894653 11.96618652 25.13894653 C17.24618652 24.80894653 22.52618652 24.47894653 27.96618652 24.13894653 C27.96618652 27.43894653 27.96618652 30.73894653 27.96618652 34.13894653 C22.68618652 33.80894653 17.40618652 33.47894653 11.96618652 33.13894653 C12.0194812 34.99410889 12.0194812 34.99410889 12.07385254 36.88674927 C12.20383424 41.45806795 12.32712998 46.02954638 12.44836426 50.60110474 C12.50186546 52.58292602 12.55720083 54.56469865 12.61437988 56.54641724 C12.69606507 59.38835147 12.77123825 62.23039315 12.84509277 65.07254028 C12.87212784 65.96420395 12.8991629 66.85586761 12.92701721 67.77455139 C12.97894567 69.89542099 12.97807564 72.01747462 12.96618652 74.13894653 C12.63618652 74.46894653 12.30618652 74.79894653 11.96618652 75.13894653 C8.66618652 75.13894653 5.36618652 75.13894653 1.96618652 75.13894653 C1.96618652 61.60894653 1.96618652 48.07894653 1.96618652 34.13894653 C-9.45394347 34.43123439 -9.45394347 34.43123439 -18.03381348 39.13894653 C-19.63932485 42.34996928 -19.50188569 45.65593861 -19.03381348 49.13894653 C-17.76442924 51.82514835 -17.76442924 51.82514835 -15.03381348 53.13894653 C-11.95177614 53.45722922 -9.14888947 53.3221863 -6.03381348 53.13894653 C-6.03381348 56.76894653 -6.03381348 60.39894653 -6.03381348 64.13894653 C-14.12039167 63.35724397 -20.27182562 62.14643262 -26.03381348 56.13894653 C-29.1416898 51.86561658 -29.62270427 47.83404989 -29.44396973 42.66629028 C-28.50636865 36.88888177 -25.20540391 32.78421859 -20.65881348 29.26394653 C-13.68101308 24.81130302 -6.08541954 24.68175144 1.96618652 24.13894653 C1.96618652 19.51894653 1.96618652 14.89894653 1.96618652 10.13894653 C-1.00381348 10.13894653 -3.97381348 10.13894653 -7.03381348 10.13894653 C-7.13146973 3.20535278 -7.13146973 3.20535278 -7.03381348 1.13894653 C-5.16418629 -0.73068065 -2.48717787 0.0100835 0 0 Z " fill="#134588" transform="translate(75.0338134765625,161.86105346679688)"/>
<path d="M0 0 C2.97 0 5.94 0 9 0 C9.9771115 3.908446 10.12063644 6.96104839 10.11352539 10.97167969 C10.11367142 11.6647673 10.11381744 12.35785492 10.1139679 13.07194519 C10.11327307 15.35528733 10.10550085 17.63854717 10.09765625 19.921875 C10.09579054 21.50799515 10.09436736 23.09411588 10.09336853 24.68023682 C10.08955538 28.84936115 10.07973537 33.0184505 10.06866455 37.18756104 C10.05842457 41.44404629 10.05386537 45.70053722 10.04882812 49.95703125 C10.03811202 58.30470353 10.02105004 66.65234741 10 75 C6.7 75 3.4 75 0 75 C-0.54140625 73.60007812 -1.0828125 72.20015625 -1.640625 70.7578125 C-4.07763163 64.66529592 -6.88917632 58.77748433 -9.75 52.875 C-11.4825 49.28625 -13.215 45.6975 -15 42 C-15 52.89 -15 63.78 -15 75 C-18.3 75 -21.6 75 -25 75 C-25 56.85 -25 38.7 -25 20 C-21.7 20 -18.4 20 -15 20 C-13.68 23.3 -12.36 26.6 -11 30 C-7.7 36.93 -4.4 43.86 -1 51 C-0.67 34.17 -0.34 17.34 0 0 Z " fill="#13468A" transform="translate(399,162)"/>
<path d="M0 0 C19.43243243 0 19.43243243 0 25.75 5.3125 C30.12466658 10.53779619 31.56881625 14.72290535 31.35546875 21.46875 C30.51773417 27.43415669 27.54668531 32.10284116 23 36 C24.90491657 42.39135942 27.90001574 48.21157379 30.81054688 54.1875 C31.20435547 55.00476563 31.59816406 55.82203125 32.00390625 56.6640625 C32.36299072 57.40092285 32.7220752 58.1377832 33.09204102 58.89697266 C33.96577668 60.92073147 34.53331275 62.84965574 35 65 C33.54207116 65.05399736 32.08357288 65.09279177 30.625 65.125 C29.81289063 65.14820313 29.00078125 65.17140625 28.1640625 65.1953125 C26 65 26 65 24 63 C23.359375 61.29296875 23.359375 61.29296875 22.75 59.1875 C21.05580076 53.79766406 18.65136871 48.80759184 16.20703125 43.72265625 C15 41 15 41 15 39 C13.35 39 11.7 39 10 39 C10.33 44.28 10.66 49.56 11 55 C7.7 55 4.4 55 1 55 C0.67 36.85 0.34 18.7 0 0 Z " fill="#134589" transform="translate(337,182)"/>
<path d="M0 0 C3.3 0 6.6 0 10 0 C11.56727505 5.34298313 12.93162916 10.71592808 14.25 16.125 C16.28209945 24.40619308 18.54827748 32.59900926 21.03222656 40.75634766 C22.64377694 46.19291609 23.52269345 51.34619028 24 57 C24.66 57 25.32 57 26 57 C26.39058594 55.19595703 26.39058594 55.19595703 26.7890625 53.35546875 C28.20683071 46.98049516 29.79015367 40.64764662 31.375 34.3125 C31.68590576 33.06968262 31.99681152 31.82686523 32.31713867 30.54638672 C34.90568863 20.26099902 37.60451015 10.05302237 41 0 C44.3 0 47.6 0 51 0 C50.14357694 4.96521465 48.66404634 9.73499518 47.25 14.5625 C44.95382552 22.48622921 42.84832811 30.43308546 40.90649414 38.45043945 C39.82085935 42.88005695 38.65084777 47.26731768 37.35546875 51.640625 C37.07832031 52.57777344 36.80117187 53.51492187 36.515625 54.48046875 C35.97979304 56.27247281 35.43481145 58.06177724 34.87890625 59.84765625 C33.30766811 65.0988995 32.72838821 69.51723169 33 75 C28.05 75 23.1 75 18 75 C18 72.69 18 70.38 18 68 C17.36933904 65.45782241 16.68501672 63.04347936 15.875 60.5625 C13.65802808 53.43102673 11.77059895 46.25464863 10 39 C7.34021849 28.1650251 4.59740903 17.31188433 0.859375 6.7890625 C0 4 0 4 0 0 Z " fill="#134689" transform="translate(205,162)"/>
<path d="M0 0 C-1.50769231 3.76923077 -1.50769231 3.76923077 -4 4.9375 C-6.25442634 5.83786508 -6.25442634 5.83786508 -6.77612305 8.39624023 C-8.40406234 11.85962993 -10.13011173 12.21056572 -13.58203125 13.72265625 C-16.66045793 15.40655228 -16.66045793 15.40655228 -19 18 C-20.40643356 23.85390768 -20.04410392 29.46698399 -19.6875 35.4375 C-19.63226755 37.04345243 -19.58208696 38.64958703 -19.53710938 40.25585938 C-19.41640261 44.17509814 -19.22701273 48.0855386 -19 52 C-17.1068373 48.43727649 -15.23823878 44.86281497 -13.39086914 41.27612305 C-12.76002269 40.05950214 -12.12273253 38.84619885 -11.47875977 37.63647461 C-10.5507101 35.89036103 -9.64812307 34.13079029 -8.74609375 32.37109375 C-8.19622803 31.31849365 -7.6463623 30.26589355 -7.07983398 29.18139648 C-5.78597063 25.36942874 -6.27612342 22.91075274 -7 19 C-5.890625 16.56640625 -5.890625 16.56640625 -4.25 14.5625 C-3.45335937 13.54349609 -3.45335937 13.54349609 -2.640625 12.50390625 C-1 11 -1 11 2 11 C2.11771717 14.79139846 2.18775198 18.58231735 2.25 22.375 C2.30027344 23.96634766 2.30027344 23.96634766 2.3515625 25.58984375 C2.46725568 35.01883811 -0.04699837 42.02538609 -4.75 50.125 C-5.17796875 50.87007812 -5.6059375 51.61515625 -6.046875 52.3828125 C-6.36140625 52.91648438 -6.6759375 53.45015625 -7 54 C-3.535 53.505 -3.535 53.505 0 53 C0 55.64 0 58.28 0 61 C-4.22949995 63.41685712 -7.12335991 64.34833144 -12 64 C-12 63.34 -12 62.68 -12 62 C-12.8353125 62.2784375 -12.8353125 62.2784375 -13.6875 62.5625 C-16.399133 63.07551165 -18.34371039 62.6640724 -21 62 C-21 62.66 -21 63.32 -21 64 C-21.99 64 -22.98 64 -24 64 C-24 63.34 -24 62.68 -24 62 C-25.98 62 -27.96 62 -30 62 C-30 43.85 -30 25.7 -30 7 C-24.06 6.505 -24.06 6.505 -18 6 C-14.81637564 4.7000156 -14.81637564 4.7000156 -12 3 C-4.18099548 0 -4.18099548 0 0 0 Z " fill="#194886" transform="translate(154,175)"/>
<path d="M0 0 C4.34597659 1.80199029 6.51909932 4.95907074 8.54296875 9.0390625 C12.45791708 19.148084 11.08090399 30.02688355 7.5625 40.0625 C5.98368389 43.18383759 4.04197539 45.58302461 1.5625 48.0625 C-1.49497951 48.62323466 -4.37600161 48.58639277 -7.4375 48.0625 C-11.71171521 44.44585636 -13.10473753 39.44774085 -13.64477539 33.95385742 C-13.74098626 31.69428363 -13.76621517 29.44903994 -13.75 27.1875 C-13.74581055 26.3924707 -13.74162109 25.59744141 -13.73730469 24.77832031 C-13.55670283 15.41392186 -11.30470688 7.92970688 -4.5 1.125 C-2.4375 0.0625 -2.4375 0.0625 0 0 Z " fill="#313131" transform="translate(178.4375,53.9375)"/>
<path d="M0 0 C4.29 0 8.58 0 13 0 C13.23074219 1.24652344 13.46148437 2.49304688 13.69921875 3.77734375 C16.2447946 17.18863464 19.63497391 30.06510618 24 43 C20.37 43 16.74 43 13 43 C12.34 40.36 11.68 37.72 11 35 C8.03 34.34 5.06 33.68 2 33 C1.67 36.3 1.34 39.6 1 43 C-2.3 43 -5.6 43 -9 43 C-7.32571479 33.96055107 -4.91620711 25.20366694 -2.390625 16.36914062 C-0.83437637 10.76206835 0.45551805 5.8289439 0 0 Z " fill="#13468A" transform="translate(313,182)"/>
<path d="M0 0 C4.29 0 8.58 0 13 0 C12.94328125 0.94617188 12.8865625 1.89234375 12.828125 2.8671875 C12.83314545 7.86504295 14.31039273 12.37738638 15.75 17.125 C16.02150879 18.04772705 16.29301758 18.9704541 16.57275391 19.92114258 C18.42855231 26.20023812 20.34566892 32.46142575 22.3359375 38.69921875 C23 41 23 41 23 43 C21.35425434 43.02688151 19.70838587 43.04634123 18.0625 43.0625 C17.14597656 43.07410156 16.22945313 43.08570313 15.28515625 43.09765625 C13 43 13 43 12 42 C11.63239269 39.67182036 11.29758419 37.3381615 11 35 C8.03 34.67 5.06 34.34 2 34 C1.34 36.97 0.68 39.94 0 43 C-3.3 43 -6.6 43 -10 43 C-8.55018659 37.20074638 -7.05518778 31.4133453 -5.5625 25.625 C-5.24990234 24.40554687 -4.93730469 23.18609375 -4.61523438 21.9296875 C-4.15793945 20.15851563 -4.15793945 20.15851563 -3.69140625 18.3515625 C-3.41498291 17.27729004 -3.13855957 16.20301758 -2.85375977 15.09619141 C-2 12 -2 12 -0.89428711 8.97802734 C0.2876072 5.56048563 0.2876072 5.56048563 0 0 Z " fill="#13468A" transform="translate(420,182)"/>
<path d="M0 0 C5.06805333 4.05444267 6.0048614 10.89115646 7 17 C7.30220335 21.02162914 7.50274196 24.99112255 7 29 C6.34 29.66 5.68 30.32 5 31 C4.75765625 29.95199219 4.5153125 28.90398437 4.265625 27.82421875 C3.9278855 26.4451158 3.58929932 25.06622001 3.25 23.6875 C3.09273437 22.99720703 2.93546875 22.30691406 2.7734375 21.59570312 C1.95757259 18.3479332 1.34932473 16.32318912 -1.140625 14.01953125 C-1.75421875 13.68308594 -2.3678125 13.34664062 -3 13 C-2.505 13.804375 -2.01 14.60875 -1.5 15.4375 C0.88306153 21.09727113 0.86812306 25.7902322 -1.375 31.5 C-3 34 -3 34 -5 35 C-4.67 36.32 -4.34 37.64 -4 39 C-2.35 36.36 -0.7 33.72 1 31 C3 35 3 35 2.625 37.25 C2.315625 38.11625 2.315625 38.11625 2 39 C1.01 39 0.02 39 -1 39 C-0.67 39.33 -0.34 39.66 0 40 C0.04063832 41.66617115 0.042721 43.33388095 0 45 C-2.48700716 46.62612006 -3.99482146 46.99989211 -7 47.0625 C-10.52918005 45.81258206 -11.56245561 44.34410124 -13.1875 41.01953125 C-17.52374784 30.24145368 -16.50179085 19.96032963 -13 9 C-9.90260092 2.58117612 -7.65129383 -0.91815526 0 0 Z " fill="#2D2D2D" transform="translate(153,66)"/>
<path d="M0 0 C0 10.23 0 20.46 0 31 C-4.1146875 31.99 -4.1146875 31.99 -8.3125 33 C-9.17270752 33.20882812 -10.03291504 33.41765625 -10.91918945 33.6328125 C-11.94338989 33.87644531 -11.94338989 33.87644531 -12.98828125 34.125 C-14.03302612 34.37636719 -14.03302612 34.37636719 -15.09887695 34.6328125 C-17 35 -17 35 -20 35 C-20 35.66 -20 36.32 -20 37 C-15.545 36.505 -15.545 36.505 -11 36 C-14.91737523 37.95868762 -17.69003188 38.59339923 -22 39 C-23 38 -23 38 -23.11352539 35.77514648 C-23.10828857 34.81680908 -23.10305176 33.85847168 -23.09765625 32.87109375 C-23.09443359 31.83662109 -23.09121094 30.80214844 -23.08789062 29.73632812 C-23.07951172 28.64771484 -23.07113281 27.55910156 -23.0625 26.4375 C-23.05798828 25.34501953 -23.05347656 24.25253906 -23.04882812 23.12695312 C-23.03699826 20.41791505 -23.02051543 17.70898401 -23 15 C-22.05125 15.20625 -21.1025 15.4125 -20.125 15.625 C-19.09375 15.74875 -18.0625 15.8725 -17 16 C-14.23776722 13.23776722 -14.42143709 10.79293383 -14 7 C-15.32 6.34 -16.64 5.68 -18 5 C-14.89370844 3.31099986 -11.84794949 2.29373333 -8.4375 1.375 C-7.48746094 1.11460938 -6.53742188 0.85421875 -5.55859375 0.5859375 C-3 0 -3 0 0 0 Z " fill="#323232" transform="translate(166,115)"/>
<path d="M0 0 C3.63 0 7.26 0 11 0 C11 18.15 11 36.3 11 55 C7.7 55 4.4 55 1 55 C0.67 36.85 0.34 18.7 0 0 Z " fill="#144588" transform="translate(110,182)"/>
<path d="M0 0 C3.3 0 6.6 0 10 0 C10 18.15 10 36.3 10 55 C6.7 55 3.4 55 0 55 C0 36.85 0 18.7 0 0 Z " fill="#13468C" transform="translate(257,182)"/>
<path d="M0 0 C0 10.56 0 21.12 0 32 C-0.33 32 -0.66 32 -1 32 C-1.33 29.69 -1.66 27.38 -2 25 C-4.64 24.67 -7.28 24.34 -10 24 C-8 22 -8 22 -4.875 21.875 C-3.451875 21.936875 -3.451875 21.936875 -2 22 C-2 21.01 -2 20.02 -2 19 C-6.62 19 -11.24 19 -16 19 C-16 18.67 -16 18.34 -16 18 C-11.38 17.67 -6.76 17.34 -2 17 C-2 15.35 -2 13.7 -2 12 C-11.405 13.98 -11.405 13.98 -21 16 C-21.5163019 22.90289328 -21.5163019 22.90289328 -19 29 C-12.42159694 33.37515108 -4.49124825 35.66393032 3 38 C3 38.33 3 38.66 3 39 C1.27192682 39.33895656 -0.45751974 39.67091525 -2.1875 40 C-3.15042969 40.185625 -4.11335938 40.37125 -5.10546875 40.5625 C-7.7934206 40.96877612 -10.28771019 41.07933572 -13 41 C-13 39.948125 -13 38.89625 -13 37.8125 C-13.53366758 34.00438947 -13.53366758 34.00438947 -15.81030273 32.86572266 C-16.89226929 32.36371338 -16.89226929 32.36371338 -17.99609375 31.8515625 C-21.75208782 29.64425442 -21.75208782 29.64425442 -22.80126953 26.91772461 C-23.11634572 24.41813745 -23.15912498 22.07982221 -23.0625 19.5625 C-23.04960937 18.70809326 -23.03671875 17.85368652 -23.0234375 16.97338867 C-22.79124255 12.92448922 -22.51837008 10.65666843 -19.96484375 7.421875 C-17.67574116 5.927247 -15.59381448 4.84916545 -13 4 C-12.67 4.66 -12.34 5.32 -12 6 C-11.30132812 5.566875 -10.60265625 5.13375 -9.8828125 4.6875 C-8.97273437 4.130625 -8.06265625 3.57375 -7.125 3 C-6.22007812 2.443125 -5.31515625 1.88625 -4.3828125 1.3125 C-2 0 -2 0 0 0 Z " fill="#383838" transform="translate(218,103)"/>
<path d="M0 0 C2.6848841 3.24322084 5.00577271 6.49096016 7.12890625 10.125 C7.68900391 11.07890625 8.24910156 12.0328125 8.82617188 13.015625 C9.39916016 14.00046875 9.97214844 14.9853125 10.5625 16 C11.70957958 17.95836604 12.85671319 19.91670043 14.00390625 21.875 C14.50736572 22.73867187 15.0108252 23.60234375 15.52954102 24.4921875 C16.54673068 26.22696623 17.60218841 27.93966139 18.68725586 29.6328125 C20 32 20 32 20 35 C20.66 35 21.32 35 22 35 C22 35.66 22 36.32 22 37 C17.64279645 38.14545042 14.3272835 38.36304363 10 37 C4.39966495 32.13543675 0.68220083 24.48653887 -0.42089844 17.23193359 C-0.82451814 11.44571387 -0.53684904 5.76814464 0 0 Z " fill="#909090" transform="translate(203,202)"/>
<path d="M0 0 C0.66 0 1.32 0 2 0 C3.1787322 2.39054107 4.34302997 4.78645215 5.5 7.1875 C5.83386719 7.86103516 6.16773438 8.53457031 6.51171875 9.22851562 C8.29700132 12.96303529 9.46127195 15.75794549 9 20 C10.65 20.33 12.3 20.66 14 21 C14 24.63 14 28.26 14 32 C8.06 32 2.12 32 -4 32 C-4 31.34 -4 30.68 -4 30 C-3.01 30 -2.02 30 -1 30 C-1.00523682 29.19780029 -1.01047363 28.39560059 -1.01586914 27.5690918 C-1.03662897 23.94190247 -1.04965702 20.31472563 -1.0625 16.6875 C-1.07087891 15.42486328 -1.07925781 14.16222656 -1.08789062 12.86132812 C-1.09111328 11.65283203 -1.09433594 10.44433594 -1.09765625 9.19921875 C-1.10289307 8.08377686 -1.10812988 6.96833496 -1.11352539 5.8190918 C-1 3 -1 3 0 0 Z " fill="#909192" transform="translate(166,207)"/>
<path d="M0 0 C1.19651094 14.57718482 1.0123635 25.70716527 -7.421875 38.02734375 C-9.99350252 40.99250821 -10.42733907 41.38953603 -14 42 C-12.56460211 38.79072218 -11.12630395 35.58275207 -9.6875 32.375 C-9.28337891 31.47136719 -8.87925781 30.56773437 -8.46289062 29.63671875 C-6.39943356 25.04007457 -4.3009615 20.48277937 -2 16 C-2.99 15.67 -3.98 15.34 -5 15 C-5.27634277 15.87865723 -5.55268555 16.75731445 -5.83740234 17.66259766 C-6.90586671 20.72977696 -8.13740046 23.50416369 -9.6015625 26.3984375 C-10.09140625 27.37167969 -10.58125 28.34492188 -11.0859375 29.34765625 C-11.59382812 30.34667969 -12.10171875 31.34570312 -12.625 32.375 C-13.140625 33.39722656 -13.65625 34.41945312 -14.1875 35.47265625 C-15.45471873 37.98362669 -16.72564556 40.49264561 -18 43 C-18.99 43 -19.98 43 -21 43 C-19.89022692 39.01154282 -18.2819549 35.49491213 -16.36328125 31.84765625 C-15.86892578 30.90599609 -15.37457031 29.96433594 -14.86523438 28.99414062 C-13.82911088 27.03788734 -12.78218388 25.08731845 -11.72460938 23.14257812 C-8.7754448 17.47289642 -7.62433625 14.43061752 -9 8 C-7.890625 5.56640625 -7.890625 5.56640625 -6.25 3.5625 C-5.71890625 2.88316406 -5.1878125 2.20382813 -4.640625 1.50390625 C-3 0 -3 0 0 0 Z " fill="#909090" transform="translate(156,186)"/>
<path d="M0 0 C4.53897705 -0.02465392 9.07791543 -0.04283789 13.61694336 -0.05493164 C15.16219766 -0.0599714 16.70744716 -0.0668032 18.25268555 -0.07543945 C20.46925029 -0.08752076 22.68575218 -0.09323173 24.90234375 -0.09765625 C25.5971434 -0.10281754 26.29194305 -0.10797882 27.00779724 -0.11329651 C28.6722933 -0.11349277 30.33665499 -0.06189129 32 0 C33 1 33 1 33 7 C22.11 7 11.22 7 0 7 C0 4.69 0 2.38 0 0 Z " fill="#144587" transform="translate(410,230)"/>
<path d="M0 0 C7 1 7 1 9.9375 3.5625 C12.15831828 6.6391818 12.74796311 9.26854648 12.48046875 13.03515625 C11.55634452 16.81429844 9.94964309 18.4269071 7 21 C4.69 21.33 2.38 21.66 0 22 C0 14.74 0 7.48 0 0 Z " fill="#28292B" transform="translate(347,190)"/>
<path d="M0 0 C-0.33 0.99 -0.66 1.98 -1 3 C-2.0725 3.20625 -3.145 3.4125 -4.25 3.625 C-8.92927414 5.34073385 -9.87786529 7.02211374 -12 11.37109375 C-16.51737423 23.24684711 -15.90270544 34.59649853 -11.09375 46.18359375 C-9.4125384 48.97560587 -6.91188335 49.73396376 -4 51 C-6.6860286 52.79068573 -8.6626589 53.66055791 -11.6875 54.625 C-12.89986328 55.01558594 -12.89986328 55.01558594 -14.13671875 55.4140625 C-14.75160156 55.60742188 -15.36648437 55.80078125 -16 56 C-16 57.65 -16 59.3 -16 61 C-16.66 61 -17.32 61 -18 61 C-18 59.02 -18 57.04 -18 55 C-15.69 53.68 -13.38 52.36 -11 51 C-11.61875 50.278125 -12.2375 49.55625 -12.875 48.8125 C-19.05193661 40.63714272 -18.7591773 29.83767253 -18 20 C-15.84317119 9.90744782 -11.78645036 -0.52384224 0 0 Z " fill="#838383" transform="translate(153,63)"/>
<path d="M0 0 C0 0.99 0 1.98 0 3 C0.99 3 1.98 3 3 3 C3.99 3 4.98 3 6 3 C6 3.66 6 4.32 6 5 C2.04 5.99 -1.92 6.98 -6 8 C-6.5163019 14.90289328 -6.5163019 14.90289328 -4 21 C2.57840306 25.37515108 10.50875175 27.66393032 18 30 C18 30.33 18 30.66 18 31 C16.27192682 31.33895656 14.54248026 31.67091525 12.8125 32 C11.84957031 32.185625 10.88664062 32.37125 9.89453125 32.5625 C7.2065794 32.96877612 4.71228981 33.07933572 2 33 C2 31.948125 2 30.89625 2 29.8125 C1.46940882 25.99715985 1.46940882 25.99715985 -0.83007812 24.87890625 C-1.55646484 24.54761719 -2.28285156 24.21632812 -3.03125 23.875 C-6.79794166 21.67089683 -6.79794166 21.67089683 -7.65625 18.82104492 C-7.7872867 16.23639729 -7.70008398 13.767429 -7.5 11.1875 C-7.46390625 10.30384766 -7.4278125 9.42019531 -7.390625 8.50976562 C-7.29670953 6.33797028 -7.15321507 4.16841885 -7 2 C-5.824375 1.7834375 -5.824375 1.7834375 -4.625 1.5625 C-2.03578982 1.12201075 -2.03578982 1.12201075 0 0 Z " fill="#363636" transform="translate(203,111)"/>
<path d="M0 0 C-1.50769231 3.76923077 -1.50769231 3.76923077 -4 4.9375 C-6.24438152 5.83823567 -6.24438152 5.83823567 -6.8125 8.359375 C-8.30925662 11.68768907 -9.85174139 12.54160453 -13 14.3125 C-13.886875 14.82425781 -14.77375 15.33601562 -15.6875 15.86328125 C-18 17 -18 17 -20 17 C-20.28125 14.70703125 -20.28125 14.70703125 -20 12 C-18.03125 10.19921875 -18.03125 10.19921875 -15.5 8.6875 C-14.6646875 8.17574219 -13.829375 7.66398438 -12.96875 7.13671875 C-12.3190625 6.76160156 -11.669375 6.38648438 -11 6 C-13.91985181 6.68088981 -16.35122304 7.58101234 -19 9 C-18 6 -18 6 -15.5 4.5 C-5 0 -5 0 0 0 Z " fill="#8B8B8B" transform="translate(154,175)"/>
<path d="M0 0 C0 0.99 0 1.98 0 3 C-3.90971255 3.55571675 -7.82004643 4.10682953 -11.73095703 4.65405273 C-13.699871 4.93046254 -15.66830227 5.21030379 -17.63671875 5.49023438 C-25.41419831 6.57592315 -33.16579777 7.45153259 -41 8 C-41 7.01 -41 6.02 -41 5 C-36.12610789 4.28246537 -31.25143733 3.5705671 -26.37597656 2.86376953 C-24.71917778 2.6227865 -23.06259797 2.38029282 -21.40625 2.13623047 C-19.01879616 1.78471232 -16.63059506 1.43872099 -14.2421875 1.09375 C-13.50757294 0.9843811 -12.77295837 0.87501221 -12.01608276 0.7623291 C-7.975927 0.18479048 -4.08040942 -0.11225335 0 0 Z " fill="#333333" transform="translate(221,144)"/>
<path d="M0 0 C3.25696479 0.41755959 4.63443291 0.63443291 7 3 C7.30078125 5.27734375 7.30078125 5.27734375 7.3125 7.9375 C7.32925781 8.81277344 7.34601563 9.68804687 7.36328125 10.58984375 C6.93115567 13.45674145 6.29526775 14.28526836 4 16 C3.01 16.33 2.02 16.66 1 17 C0.896875 17.94875 0.79375 18.8975 0.6875 19.875 C0 23 0 23 -3 25 C-2.67 23.68 -2.34 22.36 -2 21 C-2.99 21 -3.98 21 -5 21 C-4.79375 20.38125 -4.5875 19.7625 -4.375 19.125 C-4.25125 18.42375 -4.1275 17.7225 -4 17 C-4.66 16.34 -5.32 15.68 -6 15 C-3.03 13.68 -0.06 12.36 3 11 C3.33380814 7.62563814 3.33380814 7.62563814 3 4 C1.13875077 2.01760473 1.13875077 2.01760473 -1 1 C-0.67 0.67 -0.34 0.34 0 0 Z " fill="#898989" transform="translate(156,121)"/>
<path d="M0 0 C1.32 0.33 2.64 0.66 4 1 C2.13413867 5.15997505 0.22749599 9.29994125 -1.6875 13.4375 C-2.21794922 14.62150391 -2.74839844 15.80550781 -3.29492188 17.02539062 C-3.82021484 18.15009766 -4.34550781 19.27480469 -4.88671875 20.43359375 C-5.36326904 21.47572021 -5.83981934 22.51784668 -6.33081055 23.59155273 C-8 26 -8 26 -10.69458008 26.84790039 C-11.83576294 26.9231897 -11.83576294 26.9231897 -13 27 C-11.58481442 23.9992992 -10.16757567 20.99957233 -8.75 18 C-8.35425781 17.16082031 -7.95851562 16.32164062 -7.55078125 15.45703125 C-5.09826712 10.27056694 -2.58467342 5.12192163 0 0 Z " fill="#303030" transform="translate(151,201)"/>
<path d="M0 0 C3.78125 0.71875 3.78125 0.71875 5.75 3.25 C8.52839427 11.5851828 7.8455168 20.16106192 4 28 C3.34 28.66 2.68 29.32 2 30 C1.01 30 0.02 30 -1 30 C-0.71125 29.29875 -0.4225 28.5975 -0.125 27.875 C0.24625 26.92625 0.6175 25.9775 1 25 C1.37125 24.13375 1.7425 23.2675 2.125 22.375 C4.19624531 14.38591096 3.3710211 7.44433827 0 0 Z " fill="#8A8A8A" transform="translate(178,65)"/>
<path d="M0 0 C1.20331703 3.60995109 0.9821615 6.81876128 0.875 10.5625 C0.76124185 17.17843476 1.496502 22.80086209 4 29 C2.35 28.67 0.7 28.34 -1 28 C-3.2343819 21.6293516 -4.76082218 15.78887482 -4 9 C-3.67 8.34 -3.34 7.68 -3 7 C-2.34 7 -1.68 7 -1 7 C-0.67 4.69 -0.34 2.38 0 0 Z " fill="#3D3D3D" transform="translate(141,79)"/>
<path d="M0 0 C1 3 1 3 0.01196289 5.54370117 C-0.7499939 7.02833862 -0.7499939 7.02833862 -1.52734375 8.54296875 C-2.07197266 9.61611328 -2.61660156 10.68925781 -3.17773438 11.79492188 C-3.75845703 12.91447266 -4.33917969 14.03402344 -4.9375 15.1875 C-5.8027832 16.88422852 -5.8027832 16.88422852 -6.68554688 18.61523438 C-8.11487551 21.41482848 -9.55331136 24.20934805 -11 27 C-11.99 27 -12.98 27 -14 27 C-12.31743375 21.2352986 -9.68308192 16.03449897 -7 10.6875 C-6.54882812 9.76904297 -6.09765625 8.85058594 -5.6328125 7.90429688 C-5.19710937 7.03224609 -4.76140625 6.16019531 -4.3125 5.26171875 C-3.91675781 4.46725342 -3.52101562 3.67278809 -3.11328125 2.85424805 C-2 1 -2 1 0 0 Z " fill="#878889" transform="translate(149,202)"/>
<path d="M0 0 C0.66 0 1.32 0 2 0 C2 7.92 2 15.84 2 24 C1.67 24 1.34 24 1 24 C0.67 21.69 0.34 19.38 0 17 C-2.64 16.67 -5.28 16.34 -8 16 C-6 14 -6 14 -2.875 13.875 C-1.92625 13.91625 -0.9775 13.9575 0 14 C0 13.01 0 12.02 0 11 C-4.62 11 -9.24 11 -14 11 C-14 10.67 -14 10.34 -14 10 C-9.38 9.67 -4.76 9.34 0 9 C0 7.02 0 5.04 0 3 C-0.66 2.67 -1.32 2.34 -2 2 C-1.34 1.34 -0.68 0.68 0 0 Z " fill="#303030" transform="translate(216,111)"/>
<path d="M0 0 C0.33 0 0.66 0 1 0 C1.05423638 1.91635217 1.09289963 3.83314925 1.125 5.75 C1.14820313 6.81734375 1.17140625 7.8846875 1.1953125 8.984375 C1.00226854 11.96497379 0.76273468 13.60448877 -1 16 C-4.625 16.75 -4.625 16.75 -8 17 C-6.3341708 10.83643195 -3.12194714 5.51740344 0 0 Z " fill="#8C8E90" transform="translate(155,212)"/>
<path d="M0 0 C0 0.99 0 1.98 0 3 C0.99 3 1.98 3 3 3 C3.99 3 4.98 3 6 3 C6 3.66 6 4.32 6 5 C2.04 5.99 -1.92 6.98 -6 8 C-6 11.63 -6 15.26 -6 19 C-6.33 19 -6.66 19 -7 19 C-7 13.39 -7 7.78 -7 2 C-5.35 1.67 -3.7 1.34 -2 1 C-1.34 0.67 -0.68 0.34 0 0 Z " fill="#2D2D2D" transform="translate(203,111)"/>
<path d="M0 0 C0 5.28 0 10.56 0 16 C-2.02350324 12.96474514 -2.32124018 11.80573798 -2.625 8.3125 C-2.69976562 7.50425781 -2.77453125 6.69601563 -2.8515625 5.86328125 C-2.90054688 5.24839844 -2.94953125 4.63351563 -3 4 C-4.0828125 4.495 -4.0828125 4.495 -5.1875 5 C-8.01697427 6.00603529 -10.02895466 6.16977402 -13 6 C-9.40464172 2.97989905 -4.81374718 0 0 0 Z " fill="#3B3B3B" transform="translate(239,105)"/>
<path d="M0 0 C1.875 0.3125 1.875 0.3125 4 1 C6.48386059 4.72579089 6.3804212 6.58711402 6 11 C4.5 13.9375 4.5 13.9375 3 16 C2.01 15.67 1.02 15.34 0 15 C0.33 14.34 0.66 13.68 1 13 C1.09585131 11.35643193 1.12983511 9.70885358 1.125 8.0625 C1.12757813 7.18722656 1.13015625 6.31195313 1.1328125 5.41015625 C1.09822003 2.85540944 1.09822003 2.85540944 0 0 Z " fill="#838383" transform="translate(174,71)"/>
<path d="M0 0 C7.24137931 0.24137931 7.24137931 0.24137931 10.375 3.375 C13.78494287 10.98179564 14.27020666 18.75869697 14 27 C13.67 27 13.34 27 13 27 C12.81824219 25.84242187 12.63648438 24.68484375 12.44921875 23.4921875 C12.19582267 21.95304092 11.94188781 20.41398298 11.6875 18.875 C11.56955078 18.11445312 11.45160156 17.35390625 11.33007812 16.5703125 C10.55041941 11.93234272 9.55963628 8.03634952 7 4 C5.25298762 2.69150637 5.25298762 2.69150637 3.3125 2.125 C2.219375 1.75375 1.12625 1.3825 0 1 C0 0.67 0 0.34 0 0 Z " fill="#383838" transform="translate(186,55)"/>
<path d="M0 0 C0.66 0.33 1.32 0.66 2 1 C1.2575 1.70125 0.515 2.4025 -0.25 3.125 C-4.28066583 7.33887792 -7.30509812 11.09333403 -8 17 C-8.99 16.67 -9.98 16.34 -11 16 C-9.00316663 8.54840231 -6.57811258 4.38540838 0 0 Z " fill="#818181" transform="translate(175,52)"/>
<path d="M0 0 C3.7037332 0.2116419 4.92346478 0.92528705 7.625 3.5625 C10.22498113 6.97703218 12.16119918 10.77175911 13 15 C12.6953125 17.1796875 12.6953125 17.1796875 12 19 C11.34 19.33 10.68 19.66 10 20 C9.89042969 19.26394531 9.78085938 18.52789062 9.66796875 17.76953125 C8.67160337 10.33356382 8.67160337 10.33356382 5 4 C2.40877257 3.11341534 2.40877257 3.11341534 0 3 C0 2.01 0 1.02 0 0 Z " fill="#838383" transform="translate(189,53)"/>
<path d="M0 0 C6.6 0.33 13.2 0.66 20 1 C15.62703266 3.18648367 12.4791784 3.23362071 7.75 3.125 C7.00492188 3.11597656 6.25984375 3.10695312 5.4921875 3.09765625 C3.66131941 3.07418358 1.83061762 3.03831525 0 3 C0 2.01 0 1.02 0 0 Z " fill="#434343" transform="translate(166,183)"/>
<path d="M0 0 C1.32 0.66 2.64 1.32 4 2 C4.05422947 3.4370809 4.09289723 4.87475462 4.125 6.3125 C4.14820313 7.11300781 4.17140625 7.91351563 4.1953125 8.73828125 C4 11 4 11 2 14 C1.01 13.67 0.02 13.34 -1 13 C-0.34 12.67 0.32 12.34 1 12 C0.9278125 11.38511719 0.855625 10.77023438 0.78125 10.13671875 C0.6884375 9.32847656 0.595625 8.52023438 0.5 7.6875 C0.4071875 6.88699219 0.314375 6.08648437 0.21875 5.26171875 C0 3 0 3 0 0 Z " fill="#909090" transform="translate(147,83)"/>
<path d="M0 0 C2.8992226 0.46761655 3.86675182 0.86675182 6 3 C5.8125 6 5.8125 6 5 9 C4.01 9.66 3.02 10.32 2 11 C2.33 9.68 2.66 8.36 3 7 C2.01 7 1.02 7 0 7 C0.20625 6.38125 0.4125 5.7625 0.625 5.125 C0.74875 4.42375 0.8725 3.7225 1 3 C0.34 2.34 -0.32 1.68 -1 1 C-0.67 0.67 -0.34 0.34 0 0 Z " fill="#787878" transform="translate(151,135)"/>
<path d="M0 0 C0 1.32 0 2.64 0 4 C-2.12209776 4.69640673 -4.24778527 5.38188357 -6.375 6.0625 C-8.15003906 6.63677734 -8.15003906 6.63677734 -9.9609375 7.22265625 C-13 8 -13 8 -15 7 C-12.87767021 5.82823482 -10.75242209 4.66245215 -8.625 3.5 C-7.72007812 2.99919922 -7.72007812 2.99919922 -6.796875 2.48828125 C-2.2265625 0 -2.2265625 0 0 0 Z " fill="#888888" transform="translate(215,108)"/>
<path d="M0 0 C1.20331703 3.60995109 0.9821615 6.81876128 0.875 10.5625 C0.76124185 17.17843476 1.496502 22.80086209 4 29 C3.01 28.67 2.02 28.34 1 28 C-1.54331744 22.76127305 -1.26533023 17.4357034 -1.1875 11.75 C-1.18685547 10.83992188 -1.18621094 9.92984375 -1.18554688 8.9921875 C-1.14074248 2.28148496 -1.14074248 2.28148496 0 0 Z " fill="#7C7C7C" transform="translate(141,79)"/>
<path d="M0 0 C-3.30998105 2.20665404 -5.82021436 2.78262095 -9.6875 3.625 C-10.86699219 3.88539062 -12.04648438 4.14578125 -13.26171875 4.4140625 C-14.61716797 4.70410156 -14.61716797 4.70410156 -16 5 C-16.33 4.34 -16.66 3.68 -17 3 C-15.1096624 2.29753005 -13.21243172 1.61359151 -11.3125 0.9375 C-10.25675781 0.55464844 -9.20101562 0.17179687 -8.11328125 -0.22265625 C-4.90666208 -1.0233052 -3.1313693 -0.9237249 0 0 Z " fill="#7C7C7C" transform="translate(166,114)"/>
<path d="M0 0 C2.20914 3.31371 2.22481553 4.3446021 2.125 8.1875 C2.10695312 9.08855469 2.08890625 9.98960937 2.0703125 10.91796875 C2.03550781 11.94857422 2.03550781 11.94857422 2 13 C1.67 13 1.34 13 1 13 C0.67 10.69 0.34 8.38 0 6 C-2.64 5.67 -5.28 5.34 -8 5 C-6 3 -6 3 -2.875 2.875 C-1.92625 2.91625 -0.9775 2.9575 0 3 C0 2.01 0 1.02 0 0 Z " fill="#363636" transform="translate(216,122)"/>
<path d="M0 0 C0.99 0.66 1.98 1.32 3 2 C-1.62 2.33 -6.24 2.66 -11 3 C-11 2.34 -11 1.68 -11 1 C-3.43636364 -1.47272727 -3.43636364 -1.47272727 0 0 Z " fill="#818181" transform="translate(157,149)"/>
<path d="M0 0 C0 0.66 0 1.32 0 2 C-0.99 2 -1.98 2 -3 2 C-3 4.64 -3 7.28 -3 10 C-3.99 9.67 -4.98 9.34 -6 9 C-6.1875 5.625 -6.1875 5.625 -6 2 C-3 0 -3 0 0 0 Z " fill="#373737" transform="translate(188,112)"/>
<path d="M0 0 C1 2 1 2 1.3125 4.4375 C2.15395154 7.57381939 3.28801893 8.33781806 6 10 C3.69 9.67 1.38 9.34 -1 9 C-1.625 5.625 -1.625 5.625 -2 2 C-1.34 1.34 -0.68 0.68 0 0 Z " fill="#333333" transform="translate(186,125)"/>
<path d="M0 0 C0.33 0 0.66 0 1 0 C1.12117187 0.69867188 1.24234375 1.39734375 1.3671875 2.1171875 C1.53476563 3.02726562 1.70234375 3.93734375 1.875 4.875 C2.03742188 5.77992187 2.19984375 6.68484375 2.3671875 7.6171875 C2.83044703 10.16505988 2.83044703 10.16505988 5 12 C5.33 12.66 5.66 13.32 6 14 C5.01 14.33 4.02 14.66 3 15 C0.80121085 10.98481981 -0.59292509 7.57959271 -1 3 C-0.67 2.01 -0.34 1.02 0 0 Z " fill="#3C3C3C" transform="translate(166,85)"/>
<path d="M0 0 C0.33 0.99 0.66 1.98 1 3 C-0.65 4.65 -2.3 6.3 -4 8 C-5 7 -5 7 -5.0625 4.4375 C-5.041875 3.633125 -5.02125 2.82875 -5 2 C-3.35 1.34 -1.7 0.68 0 0 Z " fill="#858585" transform="translate(152,98)"/>
<path d="M0 0 C0.66 0 1.32 0 2 0 C2 2.31 2 4.62 2 7 C0.68 6.67 -0.64 6.34 -2 6 C-1.125 1.125 -1.125 1.125 0 0 Z " fill="#2F2F2F" transform="translate(192,117)"/>
<path d="M0 0 C1.42944945 2.35438733 2.08661261 3.48032433 1.625 6.25 C1.41875 6.8275 1.2125 7.405 1 8 C-0.65 8 -2.3 8 -4 8 C-2.66666667 5.33333333 -1.33333333 2.66666667 0 0 Z " fill="#343434" transform="translate(154,97)"/>
<path d="M0 0 C0.66 0 1.32 0 2 0 C3.45606519 4.52092968 2.27032841 7.51648796 1 12 C0.67 12 0.34 12 0 12 C0 8.04 0 4.08 0 0 Z " fill="#344A67" transform="translate(164,203)"/>
<path d="M0 0 C0.66 0 1.32 0 2 0 C2.33 2.31 2.66 4.62 3 7 C1.68 6.67 0.36 6.34 -1 6 C-0.67 4.02 -0.34 2.04 0 0 Z " fill="#262C34" transform="translate(319,200)"/>
<path d="M0 0 C0 0.99 0 1.98 0 3 C-2.97 4.65 -5.94 6.3 -9 8 C-6.50611426 3.01222852 -4.79715076 2.48741151 0 0 Z " fill="#333333" transform="translate(143,179)"/>
<path d="M0 0 C1.32 0.66 2.64 1.32 4 2 C4 2.99 4 3.98 4 5 C3.34 5 2.68 5 2 5 C2 6.65 2 8.3 2 10 C1.67 10 1.34 10 1 10 C0 3.375 0 3.375 0 0 Z " fill="#7E7E7E" transform="translate(147,83)"/>
<path d="M0 0 C0.99 0.33 1.98 0.66 3 1 C3.33 3.64 3.66 6.28 4 9 C3.01 9.33 2.02 9.66 1 10 C0.67 6.7 0.34 3.4 0 0 Z " fill="#787878" transform="translate(198,63)"/>
<path d="M0 0 C0.66 0 1.32 0 2 0 C2.33 2.31 2.66 4.62 3 7 C2.01 7 1.02 7 0 7 C0 4.69 0 2.38 0 0 Z " fill="#262C33" transform="translate(425,200)"/>
<path d="M0 0 C0.33 0.66 0.66 1.32 1 2 C-1.52788007 4.79872437 -3.20411134 6.45773019 -7 7 C-7 6.34 -7 5.68 -7 5 C-5.46875 3.7109375 -5.46875 3.7109375 -3.5 2.375 C-2.8503125 1.92898437 -2.200625 1.48296875 -1.53125 1.0234375 C-1.0259375 0.68570313 -0.520625 0.34796875 0 0 Z " fill="#5E5E5E" transform="translate(204,107)"/>
<path d="M0 0 C0.66 0.33 1.32 0.66 2 1 C2 1.66 2 2.32 2 3 C-1.465 4.485 -1.465 4.485 -5 6 C-5 5.01 -5 4.02 -5 3 C-2.625 1.25 -2.625 1.25 0 0 Z " fill="#343434" transform="translate(209,107)"/>
<path d="M0 0 C1.98 0 3.96 0 6 0 C5.67 0.99 5.34 1.98 5 3 C3.02 3.33 1.04 3.66 -1 4 C-0.67 2.68 -0.34 1.36 0 0 Z " fill="#797979" transform="translate(147,63)"/>
<path d="M0 0 C1.98 0 3.96 0 6 0 C5.34 2.31 4.68 4.62 4 7 C3.67 7 3.34 7 3 7 C3 5.02 3 3.04 3 1 C2.01 0.67 1.02 0.34 0 0 Z " fill="#3A3D40" transform="translate(179,201)"/>
</svg>
